<svg width="32" height="32" viewBox="0 0 32 32" fill="none" xmlns="http://www.w3.org/2000/svg">
<rect width="32" height="32" rx="3.01176" fill="#CA474D"/>
<path d="M5.80383 20.0785H10.9019L6.82344 24.1569M26.196 20.0785H21.0979L25.1764 24.1569M12.9411 14.9804V14.9906M19.0587 14.9804V14.9906M24.1568 6.82355V17.0196C24.1568 19.183 23.2974 21.2577 21.7677 22.7874C20.238 24.3171 18.1632 25.1765 15.9999 25.1765C13.8366 25.1765 11.7618 24.3171 10.2321 22.7874C8.70243 21.2577 7.84305 19.183 7.84305 17.0196V6.82355L11.3423 10.3228C12.7084 9.36995 14.3344 8.86022 15.9999 8.86276C17.8036 8.86276 19.4696 9.44802 20.8206 10.4391L24.1568 6.82355ZM14.9803 20.0785C14.9803 20.3489 15.0877 20.6082 15.2789 20.7994C15.4702 20.9906 15.7295 21.0981 15.9999 21.0981C16.2703 21.0981 16.5297 20.9906 16.7209 20.7994C16.9121 20.6082 17.0195 20.3489 17.0195 20.0785C17.0195 19.808 16.9121 19.5487 16.7209 19.3575C16.5297 19.1663 16.2703 19.0588 15.9999 19.0588C15.7295 19.0588 15.4702 19.1663 15.2789 19.3575C15.0877 19.5487 14.9803 19.808 14.9803 20.0785Z" stroke="#F6F6F7" stroke-width="2.03922" stroke-linecap="round" stroke-linejoin="round"/>
</svg>
